<svg width="123" height="79" viewBox="0 0 123 79" fill="none" xmlns="http://www.w3.org/2000/svg">
<path d="M46.8274 33.7664C48.5097 33.7664 49.7309 34.3026 50.8649 35.3249C51.002 35.4371 51.0145 35.6242 50.9148 35.7613C50.9023 35.7738 50.9023 35.7863 50.8899 35.7863L49.868 36.8336C49.7808 36.9458 49.6063 36.9707 49.4942 36.871C49.4817 36.8585 49.4692 36.846 49.4568 36.8336C48.7465 36.2102 47.8367 35.8611 46.8897 35.8486C44.7587 35.8486 43.1636 37.6315 43.1636 39.7386C43.1636 41.8457 44.7712 43.5912 46.9021 43.5912C47.8367 43.5788 48.7465 43.2421 49.4568 42.6437C49.5689 42.5315 49.7558 42.5315 49.8805 42.6437L50.9148 43.7159C51.0394 43.8406 51.0269 44.0401 50.9023 44.1648C49.8182 45.2246 48.3601 45.7981 46.8523 45.7856C43.5375 45.8355 40.8084 43.1798 40.7585 39.8633C40.7087 36.5468 43.363 33.8163 46.6778 33.7664C46.7152 33.754 46.7775 33.754 46.8274 33.7664ZM59.6131 41.6213L57.9432 37.9432H57.9058L56.2733 41.6213H59.6131ZM52.4102 45.1871L57.5943 33.9535C57.6441 33.8412 57.7563 33.7664 57.8809 33.7664H58.0429C58.1675 33.754 58.2796 33.8288 58.3295 33.9535L63.4762 45.1871C63.5509 45.3243 63.5011 45.5113 63.364 45.5861C63.3142 45.6111 63.2519 45.6235 63.202 45.6235H61.7565C61.5072 45.6235 61.3826 45.5238 61.2705 45.2869L60.448 43.479H55.4633L54.6408 45.2869C54.5661 45.4864 54.3791 45.6235 54.1548 45.6235H52.6968C52.5348 45.636 52.3977 45.5238 52.3728 45.3617C52.3728 45.2869 52.3853 45.237 52.4102 45.1871ZM67.2022 34.0158C67.2147 33.8662 67.3518 33.754 67.5013 33.7664H67.763C67.8876 33.7664 67.9873 33.8288 68.0496 33.9285L71.7258 41.8083H71.7757L75.4519 33.9285C75.5017 33.8163 75.6139 33.754 75.7385 33.7664H76.0002C76.1497 33.754 76.2868 33.8662 76.2993 34.0158L78.2682 45.237C78.3181 45.3866 78.2433 45.5487 78.0938 45.6111C78.0564 45.6235 78.0065 45.636 77.9691 45.6235H76.4488C76.2993 45.6111 76.1746 45.5113 76.1373 45.3742L75.1528 39.0404H75.1029L72.1869 45.5986C72.1371 45.7108 72.0249 45.7856 71.9003 45.7856H71.6012C71.4766 45.7856 71.3644 45.7108 71.3146 45.5986L68.3612 39.0404H68.3113L67.3393 45.3742C67.3019 45.5113 67.1773 45.6111 67.0402 45.6235H65.5324C65.3579 45.636 65.2208 45.5113 65.2083 45.3368C65.2083 45.2994 65.2084 45.2744 65.2208 45.237L67.2022 34.0158ZM85.2218 43.6411C86.0443 43.6411 86.7172 42.9803 86.7172 42.1574C86.7172 42.1449 86.7172 42.1325 86.7172 42.12C86.7172 41.2847 85.8823 40.6613 85.01 40.6613H83.203V43.6286H85.2218V43.6411ZM84.9851 38.8409C85.8325 38.8409 86.4182 38.1676 86.4182 37.3448C86.4182 36.5219 85.8325 35.9234 84.9851 35.9234H83.203V38.8409H84.9851ZM81.0472 34.2402C81.0472 34.0657 81.1842 33.9285 81.3587 33.9285H85.1845C87.1659 33.9285 88.7111 35.2626 88.7111 37.0206C88.7111 38.3048 87.6643 39.3147 86.8792 39.6763C87.764 39.963 89.0476 40.8607 89.0476 42.3943C89.0476 44.2645 87.4525 45.6235 85.4088 45.6235H81.3712C81.1967 45.6235 81.0596 45.4864 81.0596 45.3118V34.2402H81.0472ZM91.9512 34.2402C91.9512 34.0657 92.0882 33.9285 92.2627 33.9285H93.7955C93.97 33.9285 94.107 34.0781 94.107 34.2402V43.6037H98.3689C98.5434 43.6037 98.6805 43.7409 98.6805 43.9154V45.2869C98.6805 45.4614 98.5434 45.5986 98.3689 45.5986H92.2627C92.0882 45.5986 91.9512 45.4614 91.9512 45.2869V34.2402ZM101.858 39.988L98.0574 34.4148C97.9577 34.2776 97.9951 34.0781 98.1322 33.9909C98.182 33.9535 98.2568 33.9285 98.3191 33.941H100.026C100.138 33.941 100.238 34.0033 100.288 34.0906L102.955 37.9308L105.622 34.0906C105.684 34.0033 105.784 33.941 105.883 33.941H107.603C107.778 33.9285 107.915 34.0657 107.927 34.2402C107.927 34.3026 107.915 34.3774 107.877 34.4272L104.027 39.9755V45.2994C104.027 45.4739 103.877 45.6111 103.715 45.6111H102.182C102.008 45.6111 101.871 45.4739 101.871 45.2994V39.988H101.858Z" fill="white"/>
<path d="M37.9667 38.7786C37.9667 44.8131 33.0693 49.713 27.0378 49.713C21.0063 49.713 16.1089 44.8131 16.1089 38.7786C16.1089 32.7441 21.0063 27.8441 27.0378 27.8441C33.0817 27.8441 37.9667 32.7316 37.9667 38.7786Z" fill="#FFC929"/>
<path d="M28.3093 49.2642V51.3089C28.3218 51.4959 28.2595 51.683 28.1598 51.8451C27.9479 52.1692 27.7361 52.4934 27.5242 52.8176C27.4869 52.8799 27.437 52.9298 27.3747 52.9796C27.3124 53.017 27.2501 53.042 27.1753 53.042H27.1629C26.3279 53.017 25.5428 52.9921 24.6954 52.9547C24.6456 52.9547 24.5459 52.9422 24.5459 52.83C24.5459 52.7178 24.6705 52.7053 24.7453 52.6679C24.7453 52.6679 26.5647 51.87 27.4869 51.4835C27.5616 51.4585 27.6239 51.4087 27.6613 51.3463C27.6987 51.2715 27.7236 51.1718 27.7112 51.0845C27.7112 51.072 27.7112 47.9675 27.7112 47.1446C27.8981 47.1197 28.0975 47.0823 28.2719 47.0449C28.3093 47.5311 28.3093 48.4288 28.3093 49.2642Z" fill="#353535"/>
<path d="M33.5678 51.683C33.5678 51.6955 33.5554 51.7703 33.5055 51.7703C33.4806 51.7703 30.7141 51.7827 29.3931 51.7827C29.3184 51.7827 29.2561 51.7703 29.1813 51.7703C29.1315 51.7578 29.0816 51.7329 29.0567 51.683C29.0442 51.6456 29.0318 51.6082 29.0193 51.5708C29.0068 51.496 29.0068 51.4212 29.0068 51.3464C29.0068 51.3339 29.0193 48.0049 29.0193 46.8579C29.1938 46.808 29.3931 46.7207 29.5551 46.6584C29.5551 47.7057 29.5551 50.6108 29.5551 50.6108C29.5551 50.6357 29.5552 50.6606 29.5676 50.6856C29.5676 50.698 29.5801 50.7105 29.5925 50.723C29.6175 50.7354 29.6548 50.7479 29.6798 50.7479C30.6144 50.9225 33.0444 51.4087 33.331 51.471C33.3684 51.471 33.3934 51.4835 33.4307 51.496C33.4681 51.5084 33.493 51.5334 33.518 51.5583C33.5554 51.5957 33.5678 51.6331 33.5678 51.683Z" fill="#353535"/>
<path d="M32.5587 45.0874C31.786 45.9726 30.8016 46.6584 29.7049 47.0698C29.518 47.1446 29.3186 47.2194 29.1317 47.2693C28.87 47.3441 28.5958 47.4189 28.3217 47.4813C28.1223 47.5311 27.9104 47.5561 27.7111 47.581C25.6175 47.8802 23.499 47.4189 21.717 46.2968C21.6298 46.2469 21.5674 46.1971 21.4927 46.1597C22.9382 47.0948 24.7826 47.3316 26.7764 46.7581C29.1068 46.0724 30.7517 44.8256 31.462 42.6935C32.297 40.2124 31.1006 38.3921 29.4806 37.5068C28.1721 36.7837 26.0038 36.9333 24.6704 38.5542C24.5209 36.9084 23.3619 34.6641 23.5115 32.9809C23.7358 30.3876 26.44 29.1408 28.7205 29.5772C29.1815 29.6645 29.6177 29.8515 29.9916 30.1382C30.004 30.1507 29.9916 30.1632 29.9916 30.1756C29.4308 30.637 28.9822 31.0609 28.8451 31.4349C28.6706 31.9087 29.0694 32.1955 29.1566 33.0059C29.2189 33.3675 29.1815 33.7415 29.0569 34.0906C29.0071 34.2776 29.9043 34.7888 30.8514 34.6267C31.3873 34.5519 31.8733 34.3026 32.2471 33.916C32.5213 34.6766 32.7331 35.3748 32.9076 35.886C34.1413 39.3521 34.7893 42.4567 32.5587 45.0874Z" fill="#EF502E"/>
<path d="M28.247 33.8039C28.2345 33.8288 28.2096 33.8413 28.1846 33.8288C27.8233 33.729 27.4619 33.7166 27.1005 33.7914C26.7142 33.8662 26.3403 34.0407 26.0288 34.2901C26.0163 34.3026 25.9914 34.3026 25.9789 34.2776C25.8045 33.9909 25.7048 33.6667 25.6798 33.3301C25.5802 32.4448 26.1783 31.784 26.9011 31.7342C27.574 31.6843 28.1846 32.1082 28.3093 33.0433C28.3217 33.2054 28.3342 33.6293 28.247 33.8039Z" fill="white"/>
<path d="M26.4274 33.5046C26.7763 33.1929 27.2748 33.0807 27.7234 33.2178C27.7109 33.1056 27.6984 33.0058 27.6486 32.9061C27.5364 32.5944 27.2 32.4198 26.8884 32.5071C26.4274 32.6069 26.2654 33.1555 26.4274 33.5046ZM38.7395 29.9886L32.8327 33.0557C32.7579 33.0807 32.7081 33.1181 32.6707 33.1929C32.571 33.4672 32.4214 33.7041 32.222 33.916C31.8482 34.3025 31.3622 34.5519 30.8263 34.6267C29.8792 34.7888 28.982 34.2776 29.0319 34.0906C29.1565 33.7415 29.1814 33.3674 29.1315 33.0058C29.0443 32.1954 28.6455 31.8962 28.82 31.4349C28.9571 31.0608 29.3808 30.612 29.9416 30.1631C31.1753 29.1906 32.4713 28.2929 33.8047 27.47C35.2502 26.6097 36.6958 26.5474 38.2037 28.3054C38.5277 28.6794 38.7769 29.1158 38.9389 29.5771C39.0012 29.7392 38.914 29.9262 38.7395 29.9886Z" fill="#353535"/>
<path d="M31.4494 42.6935C30.7267 44.8256 29.0942 46.0849 26.7639 46.7581C23.5363 47.6932 20.6825 46.4838 19.3242 43.6661C19.3242 43.6661 22.1156 42.6811 24.2715 39.0778C25.5426 36.9583 28.01 36.7089 29.4556 37.5069C31.0881 38.3921 32.2844 40.2124 31.4494 42.6935Z" fill="#CC2525"/>
</svg>
