<svg width="296" height="36" viewBox="0 0 296 36" fill="none" xmlns="http://www.w3.org/2000/svg">
<path d="M10.8053 9.60969C11.9003 9.60969 12.7962 8.7138 12.7962 7.61881C12.7962 6.52383 11.9003 5.62793 10.8053 5.62793C9.71035 5.62793 8.81445 6.52383 8.81445 7.61881C8.81445 8.7138 9.71035 9.60969 10.8053 9.60969ZM7.22175 23.4463L8.21719 19.0664L10.3076 21.0573V27.0299H12.2985V19.5641L10.2081 17.5732L10.8053 14.5869C12.0994 16.0801 14.0903 17.0755 16.2803 17.0755V15.0846C14.3889 15.0846 12.7962 14.0892 11.9999 12.6956L11.0044 11.1029C10.6062 10.5056 10.009 10.1074 9.31217 10.1074C9.01354 10.1074 8.81445 10.207 8.51582 10.207L3.33953 12.3969V17.0755H5.33041V13.691L7.1222 12.9942L5.5295 21.0573L0.651838 20.0618L0.253662 22.0527L7.22175 23.4463Z" fill="#FD982C"/>
<path d="M289.832 9.60969C290.927 9.60969 291.823 8.7138 291.823 7.61881C291.823 6.52383 290.927 5.62793 289.832 5.62793C288.737 5.62793 287.841 6.52383 287.841 7.61881C287.841 8.7138 288.737 9.60969 289.832 9.60969ZM286.248 23.4463L287.244 19.0664L289.334 21.0573V27.0299H291.325V19.5641L289.234 17.5732L289.832 14.5869C291.126 16.0801 293.117 17.0755 295.307 17.0755V15.0846C293.415 15.0846 291.823 14.0892 291.026 12.6956L290.031 11.1029C289.633 10.5056 289.035 10.1074 288.339 10.1074C288.04 10.1074 287.841 10.207 287.542 10.207L282.366 12.3969V17.0755H284.357V13.691L286.149 12.9942L284.556 21.0573L279.678 20.0618L279.28 22.0527L286.248 23.4463Z" fill="#FF742C"/>
<path d="M30.232 12.4379H24.408V15.1579H28.824V19.7659H24.408V27.0299H17.56V7.15791H30.68L30.232 12.4379ZM48.3898 27.0299H41.6698L41.0298 23.9579H37.4778L36.8058 27.0299H30.3738L34.5018 7.15791H44.2618L48.3898 27.0299ZM40.5498 19.8299L39.3338 13.1739H39.2058L37.9578 19.8299H40.5498ZM48.725 13.5259C48.725 11.4139 49.365 9.77124 50.645 8.59791C51.925 7.42457 53.6957 6.83791 55.957 6.83791C58.2397 6.83791 60.5864 7.05124 62.997 7.47791L62.261 13.1099C59.5944 12.5766 57.845 12.3099 57.013 12.3099C56.181 12.3099 55.765 12.5659 55.765 13.0779C55.765 13.2699 55.829 13.4086 55.957 13.4939C56.085 13.5579 56.181 13.6112 56.245 13.6539C56.309 13.6966 56.4264 13.7499 56.597 13.8139C56.789 13.8779 56.9384 13.9419 57.045 14.0059C57.173 14.0486 57.557 14.2086 58.197 14.4859C58.8584 14.7419 59.349 14.9552 59.669 15.1259C60.0104 15.2752 60.469 15.5312 61.045 15.8939C62.709 16.9819 63.541 18.5819 63.541 20.6939C63.541 22.8059 62.9117 24.4486 61.653 25.6219C60.3944 26.7739 58.581 27.3499 56.213 27.3499C53.8664 27.3499 51.5624 27.0619 49.301 26.4859L49.749 21.0779C52.6077 21.8032 54.5384 22.1659 55.541 22.1659C56.2024 22.1659 56.533 21.9312 56.533 21.4619C56.533 21.2486 56.4477 21.0779 56.277 20.9499C56.1277 20.8219 55.893 20.6832 55.573 20.5339C55.2744 20.3846 54.8264 20.1926 54.229 19.9579C53.6317 19.7019 53.1304 19.4886 52.725 19.3179C52.3197 19.1259 51.8397 18.8379 51.285 18.4539C49.5784 17.2806 48.725 15.6379 48.725 13.5259ZM79.0418 12.5659H74.8178V27.0299H68.0018V12.5659H63.5538L63.8418 7.15791H79.4258L79.0418 12.5659ZM90.9645 21.3019H80.1165V16.1179H90.9645V21.3019ZM107.167 12.5659H102.943V27.0299H96.1268V12.5659H91.6788L91.9668 7.15791H107.551L107.167 12.5659ZM124.21 13.5579C124.21 14.8379 123.996 15.8619 123.57 16.6299C123.164 17.3766 122.524 18.0379 121.65 18.6139L124.626 27.0299H117.554L115.57 20.1819H115.058V27.0299H108.498V7.15791H116.978C119.452 7.15791 121.276 7.68057 122.45 8.72591C123.623 9.74991 124.21 11.3606 124.21 13.5579ZM115.73 16.2779C116.22 16.2779 116.562 16.1392 116.754 15.8619C116.967 15.5632 117.074 15.0512 117.074 14.3259C117.074 13.6006 116.967 13.0992 116.754 12.8219C116.54 12.5446 116.21 12.4059 115.762 12.4059H114.93V16.2779H115.73ZM143.265 27.0299H136.545L135.905 23.9579H132.353L131.681 27.0299H125.249L129.377 7.15791H139.137L143.265 27.0299ZM135.425 19.8299L134.209 13.1739H134.081L132.833 19.8299H135.425ZM150.832 17.3339C150.832 18.9552 151.013 20.1392 151.376 20.8859C151.739 21.6112 152.347 21.9739 153.2 21.9739C154.053 21.9739 155.472 21.7392 157.456 21.2699L158.48 26.3579C156.389 27.0192 154.373 27.3499 152.432 27.3499C149.467 27.3499 147.301 26.5072 145.936 24.8219C144.592 23.1152 143.92 20.5872 143.92 17.2379C143.92 13.8672 144.624 11.2966 146.032 9.52591C147.44 7.73391 149.733 6.83791 152.912 6.83791C154.768 6.83791 156.624 7.20057 158.48 7.92591L157.424 13.6219C155.312 13.0032 153.861 12.6939 153.072 12.6939C152.304 12.6939 151.739 13.0672 151.376 13.8139C151.013 14.5392 150.832 15.7126 150.832 17.3339ZM175.819 27.0299H168.299L166.283 20.4379H165.931V27.0299H159.435V7.15791H165.931V15.0299H166.283L168.811 7.15791H176.139L172.011 17.4939L175.819 27.0299Z" fill="#FD982C"/>
<path d="M195.857 27.0299H183.185V7.15791H196.305L195.857 12.4379H190.033V14.8379H195.121V19.4459H190.033V22.1659H196.305L195.857 27.0299ZM208.239 11.3179C211.226 11.3179 212.719 12.7686 212.719 15.6699V27.0299H205.967V17.1099C205.967 16.7686 205.786 16.5979 205.423 16.5979C205.082 16.5979 204.698 16.7046 204.271 16.9179V27.0299H197.615V11.7019H203.663L203.855 12.6939C205.199 11.7766 206.66 11.3179 208.239 11.3179ZM221.398 11.3179H230.102V15.2219H227.734V15.3499C228.396 15.8619 228.726 16.6192 228.726 17.6219C228.726 20.9712 226.572 22.6459 222.262 22.6459H220.246C220.076 22.6459 219.99 22.7419 219.99 22.9339C219.99 23.1259 220.076 23.2219 220.246 23.2219H225.334C228.065 23.2219 229.43 24.3312 229.43 26.5499C229.43 30.0059 226.732 31.7339 221.334 31.7339C219.158 31.7339 217.473 31.4886 216.278 30.9979C215.084 30.5072 214.486 29.6219 214.486 28.3419C214.486 27.6379 214.86 27.1152 215.606 26.7739V26.6459C214.625 26.1339 214.134 25.2806 214.134 24.0859C214.134 22.8912 214.945 21.9632 216.566 21.3019C215.073 20.2352 214.326 18.7632 214.326 16.8859C214.326 14.9872 214.945 13.5899 216.182 12.6939C217.42 11.7766 219.158 11.3179 221.398 11.3179ZM221.686 16.2139C221.132 16.2139 220.854 16.7472 220.854 17.8139C220.854 18.8806 221.153 19.4139 221.75 19.4139C222.305 19.4139 222.582 18.8912 222.582 17.8459C222.582 17.2699 222.518 16.8539 222.39 16.5979C222.262 16.3419 222.028 16.2139 221.686 16.2139ZM219.99 27.9579H223.638C223.83 27.9579 223.926 27.8832 223.926 27.7339V27.5419C223.926 27.3926 223.83 27.3179 223.638 27.3179H219.99C219.841 27.3179 219.766 27.3926 219.766 27.5419V27.7339C219.766 27.8832 219.841 27.9579 219.99 27.9579ZM231.117 23.0619V6.51791H237.677V21.5899C237.677 22.1659 238.071 22.4539 238.861 22.4539L238.381 27.3499H235.757C232.663 27.3499 231.117 25.9206 231.117 23.0619ZM247.089 27.0299H240.433V12.0219H247.089V27.0299ZM240.305 8.78991C240.305 6.97657 241.446 6.06991 243.729 6.06991C246.011 6.06991 247.153 6.97657 247.153 8.78991C247.153 9.72857 246.865 10.4006 246.289 10.8059C245.734 11.2112 244.881 11.4139 243.729 11.4139C242.577 11.4139 241.713 11.2219 241.137 10.8379C240.582 10.4326 240.305 9.74991 240.305 8.78991ZM260.922 22.2619C260.922 25.6539 258.948 27.3499 255.002 27.3499C252.954 27.3499 250.97 27.1259 249.05 26.6779L249.466 21.9739C252.132 22.6139 253.903 22.9339 254.778 22.9339C255.076 22.9339 255.226 22.8379 255.226 22.6459C255.226 22.4539 255.055 22.2939 254.714 22.1659C252.516 21.4192 250.916 20.6299 249.914 19.7979C248.911 18.9659 248.41 17.7712 248.41 16.2139C248.41 14.6566 248.954 13.4512 250.042 12.5979C251.151 11.7446 252.634 11.3179 254.49 11.3179C256.367 11.3179 258.426 11.5312 260.666 11.9579L259.994 16.7899C257.178 16.2352 255.471 15.9579 254.874 15.9579C254.596 15.9579 254.458 16.0646 254.458 16.2779C254.458 16.4486 254.639 16.5979 255.002 16.7259C256.772 17.3019 258.052 17.8779 258.842 18.4539C259.631 19.0086 260.175 19.5846 260.474 20.1819C260.772 20.7792 260.922 21.4726 260.922 22.2619ZM272.836 11.3179C275.737 11.3179 277.188 12.6619 277.188 15.3499V27.0299H270.436V17.1099C270.436 16.7686 270.254 16.5979 269.892 16.5979C269.55 16.5979 269.166 16.7046 268.74 16.9179V27.0299H262.084V6.51791H268.516V12.6619C269.817 11.7659 271.257 11.3179 272.836 11.3179Z" fill="#FF742C"/>
</svg>
