<svg width="97" height="97" viewBox="0 0 97 97" fill="none" xmlns="http://www.w3.org/2000/svg">
<g clip-path="url(#clip0_213_32)">
<path d="M48.0688 56.0266C54.7088 56.0266 60.0288 50.6665 60.0288 44.0266L60.0688 20.0266C60.0688 13.3866 54.7088 8.02655 48.0688 8.02655C41.4288 8.02655 36.0688 13.3866 36.0688 20.0266V44.0266C36.0688 50.6665 41.4288 56.0266 48.0688 56.0266ZM69.2688 44.0266C69.2688 56.0266 59.1088 64.4266 48.0688 64.4266C37.0288 64.4266 26.8688 56.0266 26.8688 44.0266H20.0688C20.0688 57.6665 30.9488 68.9465 44.0688 70.9065V84.0266H52.0688V70.9065C65.1888 68.9865 76.0688 57.7066 76.0688 44.0266H69.2688Z" fill="black"/>
</g>
<defs>
<clipPath id="clip0_213_32">
<rect width="96" height="96" fill="white" transform="translate(0.0688477 0.0265503)"/>
</clipPath>
</defs>
</svg>
