<svg width="72" height="73" viewBox="0 0 72 73" fill="none" xmlns="http://www.w3.org/2000/svg">
<path d="M14.48 31.1866C20.24 42.5065 29.52 51.7465 40.84 57.5465L49.64 48.7466C50.72 47.6665 52.32 47.3065 53.72 47.7865C58.2 49.2665 63.04 50.0666 68 50.0666C70.2 50.0666 72 51.8666 72 54.0666V68.0266C72 70.2265 70.2 72.0266 68 72.0266C30.44 72.0266 0 41.5866 0 4.02655C0 1.82655 1.8 0.0265503 4 0.0265503H18C20.2 0.0265503 22 1.82655 22 4.02655C22 9.02655 22.8 13.8266 24.28 18.3066C24.72 19.7066 24.4 21.2666 23.28 22.3866L14.48 31.1866Z" fill="black"/>
</svg>
