<svg width="34" height="34" viewBox="0 0 34 34" fill="none" xmlns="http://www.w3.org/2000/svg">
<g clip-path="url(#clip0_206_81)">
<path d="M18.8153 7.90064L18.0316 11.8744C17.8666 12.6856 18.0866 13.5244 18.6091 14.1569C19.1316 14.7894 19.9016 15.1606 20.7266 15.1606H28.2891V16.6456L24.7553 24.7856H13.6316C13.3841 24.7856 13.1641 24.5656 13.1641 24.3181V13.5381L18.8153 7.90064ZM20.0391 2.78564L11.2253 11.5994C10.7028 12.1219 10.4141 12.8231 10.4141 13.5519V24.3181C10.4141 26.0919 11.8578 27.5356 13.6316 27.5356H24.7691C25.7453 27.5356 26.6391 27.0269 27.1341 26.2019L30.8053 17.7456C30.9566 17.4019 31.0391 17.0306 31.0391 16.6456V15.1606C31.0391 13.6481 29.8016 12.4106 28.2891 12.4106H20.7266L21.9916 6.01689C22.0603 5.71439 22.0191 5.38439 21.8816 5.10939C21.5653 4.49064 21.1666 3.92689 20.6716 3.43189L20.0391 2.78564ZM6.28906 12.4106H3.53906V27.5356H6.28906C7.04531 27.5356 7.66406 26.9169 7.66406 26.1606V13.7856C7.66406 13.0294 7.04531 12.4106 6.28906 12.4106Z" fill="white"/>
</g>
<defs>
<clipPath id="clip0_206_81">
<rect width="33" height="33" fill="white" transform="translate(0.789062 0.0356445)"/>
</clipPath>
</defs>
</svg>
