<svg width="17" height="23" viewBox="0 0 17 23" fill="none" xmlns="http://www.w3.org/2000/svg">
<path d="M10.8317 4.60969C11.9267 4.60969 12.8226 3.7138 12.8226 2.61881C12.8226 1.52383 11.9267 0.62793 10.8317 0.62793C9.73672 0.62793 8.84082 1.52383 8.84082 2.61881C8.84082 3.7138 9.73672 4.60969 10.8317 4.60969ZM7.24812 18.4463L8.24356 14.0664L10.334 16.0573V22.0299H12.3249V14.5641L10.2344 12.5732L10.8317 9.5869C12.1258 11.0801 14.1167 12.0755 16.3066 12.0755V10.0846C14.4153 10.0846 12.8226 9.08918 12.0262 7.69556L11.0308 6.10285C10.6326 5.50559 10.0353 5.10741 9.33854 5.10741C9.03991 5.10741 8.84082 5.20696 8.54219 5.20696L3.3659 7.39693V12.0755H5.35678V8.691L7.14857 7.99419L5.55586 16.0573L0.678205 15.0618L0.280029 17.0527L7.24812 18.4463Z" fill="#FF742C"/>
</svg>
